<svg width="385" height="95" viewBox="0 0 385 95" fill="none" xmlns="http://www.w3.org/2000/svg">
<path d="M29.312 94.464C11.904 94.464 0.639995 85.76 -4.76837e-06 71.68H15.104C15.872 78.08 21.376 82.048 29.952 82.048C38.144 82.048 42.624 78.592 42.624 73.472C42.624 69.504 39.808 67.328 31.104 65.664L20.224 63.616C6.528 61.184 0.639995 54.912 0.639995 45.568C0.639995 33.28 11.136 24.576 28.8 24.576C45.696 24.576 55.936 32.64 56.96 46.464H41.984C41.088 40.448 36.224 36.864 27.776 36.864C19.712 36.864 15.616 40.064 15.616 44.544C15.616 48 18.048 50.048 27.008 51.712L37.888 53.632C51.2 56.064 57.6 62.08 57.6 72.192C57.6 85.248 47.104 94.464 29.312 94.464ZM84.408 94.208C70.072 94.208 60.216 85.888 60.216 73.856C60.216 61.44 70.584 53.248 87.48 53.248H106.936V50.944C106.936 41.984 101.816 37.376 92.856 37.376C84.664 37.376 79.672 41.088 78.648 47.36H62.52C63.928 33.408 75.448 24.576 93.24 24.576C111.8 24.576 122.04 34.304 122.04 51.456V75.136C122.04 78.848 123.704 80.512 127.416 80.512H130.104V93.44H121.912C114.104 93.44 108.856 89.856 107.576 83.072C103.096 90.112 94.52 94.208 84.408 94.208ZM75.96 72.96C75.96 78.336 80.44 81.92 87.992 81.92C98.872 81.92 106.936 74.752 106.936 65.024V64.128H89.528C80.568 64.128 75.96 67.456 75.96 72.96ZM133.677 93.44V0H149.293V35.072C154.157 28.416 162.221 24.576 171.565 24.576C186.157 24.576 196.013 34.176 196.013 50.944V93.44H180.397V55.424C180.397 44.288 174.893 38.784 166.189 38.784C156.461 38.784 149.293 45.312 149.293 57.472V93.44H133.677ZM225.608 94.208C211.272 94.208 201.416 85.888 201.416 73.856C201.416 61.44 211.784 53.248 228.68 53.248H248.136V50.944C248.136 41.984 243.016 37.376 234.056 37.376C225.864 37.376 220.872 41.088 219.848 47.36H203.72C205.128 33.408 216.648 24.576 234.44 24.576C253 24.576 263.24 34.304 263.24 51.456V75.136C263.24 78.848 264.904 80.512 268.616 80.512H271.304V93.44H263.112C255.304 93.44 250.056 89.856 248.776 83.072C244.296 90.112 235.72 94.208 225.608 94.208ZM217.16 72.96C217.16 78.336 221.64 81.92 229.192 81.92C240.072 81.92 248.136 74.752 248.136 65.024V64.128H230.728C221.768 64.128 217.16 67.456 217.16 72.96ZM274.877 93.44V25.6H290.237V37.248C294.205 29.696 301.885 25.6 310.589 25.6H315.965V39.808H310.333C297.405 39.808 290.493 46.72 290.493 60.928V93.44H274.877ZM339.183 94.208C324.847 94.208 314.991 85.888 314.991 73.856C314.991 61.44 325.359 53.248 342.255 53.248H361.711V50.944C361.711 41.984 356.591 37.376 347.631 37.376C339.439 37.376 334.447 41.088 333.423 47.36H317.295C318.703 33.408 330.223 24.576 348.015 24.576C366.575 24.576 376.815 34.304 376.815 51.456V75.136C376.815 78.848 378.479 80.512 382.191 80.512H384.879V93.44H376.687C368.879 93.44 363.631 89.856 362.351 83.072C357.871 90.112 349.295 94.208 339.183 94.208ZM330.735 72.96C330.735 78.336 335.215 81.92 342.767 81.92C353.647 81.92 361.711 74.752 361.711 65.024V64.128H344.303C335.343 64.128 330.735 67.456 330.735 72.96Z" fill="black"/>
</svg>
