<svg width="462" height="166" viewBox="0 0 462 166" fill="none" xmlns="http://www.w3.org/2000/svg">
<path d="M104.664 129.024C87.256 129.024 75.992 120.32 75.352 106.24H90.456C91.224 112.64 96.728 116.608 105.304 116.608C113.496 116.608 117.976 113.152 117.976 108.032C117.976 104.064 115.16 101.888 106.456 100.224L95.576 98.176C81.88 95.744 75.992 89.472 75.992 80.128C75.992 67.84 86.488 59.136 104.152 59.136C121.048 59.136 131.288 67.2 132.312 81.024H117.336C116.44 75.008 111.576 71.424 103.128 71.424C95.064 71.424 90.968 74.624 90.968 79.104C90.968 82.56 93.4 84.608 102.36 86.272L113.24 88.192C126.552 90.624 132.952 96.64 132.952 106.752C132.952 119.808 122.456 129.024 104.664 129.024ZM159.76 128.768C145.424 128.768 135.568 120.448 135.568 108.416C135.568 96 145.936 87.808 162.832 87.808H182.288V85.504C182.288 76.544 177.168 71.936 168.208 71.936C160.016 71.936 155.024 75.648 154 81.92H137.872C139.28 67.968 150.8 59.136 168.592 59.136C187.152 59.136 197.392 68.864 197.392 86.016V109.696C197.392 113.408 199.056 115.072 202.768 115.072H205.456V128H197.264C189.456 128 184.208 124.416 182.928 117.632C178.448 124.672 169.872 128.768 159.76 128.768ZM151.312 107.52C151.312 112.896 155.792 116.48 163.344 116.48C174.224 116.48 182.288 109.312 182.288 99.584V98.688H164.88C155.92 98.688 151.312 102.016 151.312 107.52ZM209.029 128V34.56H224.645V69.632C229.509 62.976 237.573 59.136 246.917 59.136C261.509 59.136 271.365 68.736 271.365 85.504V128H255.749V89.984C255.749 78.848 250.245 73.344 241.541 73.344C231.813 73.344 224.645 79.872 224.645 92.032V128H209.029ZM300.96 128.768C286.624 128.768 276.768 120.448 276.768 108.416C276.768 96 287.136 87.808 304.032 87.808H323.488V85.504C323.488 76.544 318.368 71.936 309.408 71.936C301.216 71.936 296.224 75.648 295.2 81.92H279.072C280.48 67.968 292 59.136 309.792 59.136C328.352 59.136 338.592 68.864 338.592 86.016V109.696C338.592 113.408 340.256 115.072 343.968 115.072H346.656V128H338.464C330.656 128 325.408 124.416 324.128 117.632C319.648 124.672 311.072 128.768 300.96 128.768ZM292.512 107.52C292.512 112.896 296.992 116.48 304.544 116.48C315.424 116.48 323.488 109.312 323.488 99.584V98.688H306.08C297.12 98.688 292.512 102.016 292.512 107.52ZM350.229 128V60.16H365.589V71.808C369.557 64.256 377.237 60.16 385.941 60.16H391.317V74.368H385.685C372.757 74.368 365.845 81.28 365.845 95.488V128H350.229ZM414.535 128.768C400.199 128.768 390.343 120.448 390.343 108.416C390.343 96 400.711 87.808 417.607 87.808H437.063V85.504C437.063 76.544 431.943 71.936 422.983 71.936C414.791 71.936 409.799 75.648 408.775 81.92H392.647C394.055 67.968 405.575 59.136 423.367 59.136C441.927 59.136 452.167 68.864 452.167 86.016V109.696C452.167 113.408 453.831 115.072 457.543 115.072H460.231V128H452.039C444.231 128 438.983 124.416 437.703 117.632C433.223 124.672 424.647 128.768 414.535 128.768ZM406.087 107.52C406.087 112.896 410.567 116.48 418.119 116.48C428.999 116.48 437.063 109.312 437.063 99.584V98.688H419.655C410.695 98.688 406.087 102.016 406.087 107.52Z" fill="black"/>
<path d="M44 100.647V128H22V111.588H16.5C12.1239 111.588 7.92709 109.859 4.83274 106.781C1.73839 103.704 0 99.5291 0 95.1765V78.7647C0 77.3138 0.579464 75.9224 1.61091 74.8964C2.64236 73.8705 4.04131 73.2941 5.5 73.2941C6.95869 73.2941 8.35764 73.8705 9.38909 74.8964C10.4205 75.9224 11 77.3138 11 78.7647V95.1765C11 98.24 13.475 100.647 16.5 100.647H22V45.9412C22 43.0394 23.1589 40.2565 25.2218 38.2046C27.2847 36.1527 30.0826 35 33 35C35.9174 35 38.7153 36.1527 40.7782 38.2046C42.8411 40.2565 44 43.0394 44 45.9412V89.7059H49.5C50.9587 89.7059 52.3576 89.1295 53.3891 88.1036C54.4205 87.0776 55 85.6862 55 84.2353V73.2941C55 71.8432 55.5795 70.4518 56.6109 69.4258C57.6424 68.3999 59.0413 67.8235 60.5 67.8235C61.9587 67.8235 63.3576 68.3999 64.3891 69.4258C65.4205 70.4518 66 71.8432 66 73.2941V84.2353C66 88.588 64.2616 92.7624 61.1673 95.8402C58.0729 98.918 53.8761 100.647 49.5 100.647H44Z" fill="black"/>
</svg>
